<svg
        width="16"
        height="15"
        viewBox="0 0 16 13"
        fill="none"
        xmlns="http://www.w3.org/2000/svg"
      >
        <path
          d="M8.0013 3C8.53174 3 9.04044 3.21071 9.41552 3.58579C9.79059 3.96086 10.0013 4.46957 10.0013 5C10.0013 5.53043 9.79059 6.03914 9.41552 6.41421C9.04044 6.78929 8.53174 7 8.0013 7C7.47087 7 6.96216 6.78929 6.58709 6.41421C6.21202 6.03914 6.0013 5.53043 6.0013 5C6.0013 4.46957 6.21202 3.96086 6.58709 3.58579C6.96216 3.21071 7.47087 3 8.0013 3ZM8.0013 0C11.2413 0 14.148 2 15.3346 5C13.7413 9.05333 9.16797 11.04 5.11464 9.44667C3.0813 8.64667 1.46797 7.04 0.667969 5C1.85464 2 4.7613 0 8.0013 0ZM2.1213 5C3.70797 8.24667 7.63464 9.59333 10.8813 8C12.1869 7.36112 13.2424 6.30556 13.8813 5C12.2946 1.75333 8.36797 0.406667 5.1213 2C3.81574 2.63888 2.76019 3.69444 2.1213 5ZM6.0013 11.6667H4.66797V13H6.0013V11.6667ZM8.66797 11.6667H7.33464V13H8.66797V11.6667ZM11.3346 11.6667H10.0013V13H11.3346V11.6667Z"
          fill="#424143"
        />
      </svg>