<svg width="29" height="29" viewBox="0 0 29 29" fill="none" xmlns="http://www.w3.org/2000/svg">
<path d="M6.04167 8.69995C6.04167 7.99491 6.32175 7.31876 6.82028 6.82022C7.31882 6.32169 7.99497 6.04161 8.70001 6.04161H9.90834C10.6103 6.04121 11.2835 5.76322 11.7813 5.26828L12.6271 4.42245C12.8741 4.17401 13.1678 3.97686 13.4913 3.84233C13.8148 3.70781 14.1617 3.63855 14.5121 3.63855C14.8624 3.63855 15.2093 3.70781 15.5328 3.84233C15.8563 3.97686 16.15 4.17401 16.3971 4.42245L17.2429 5.26828C17.7408 5.7637 18.415 6.04161 19.1158 6.04161H20.3242C21.0292 6.04161 21.7054 6.32169 22.2039 6.82022C22.7024 7.31876 22.9825 7.99491 22.9825 8.69995V9.90828C22.9825 10.6091 23.2604 11.2834 23.7558 11.7812L24.6017 12.627C24.8501 12.8741 25.0473 13.1678 25.1818 13.4913C25.3163 13.8148 25.3856 14.1617 25.3856 14.512C25.3856 14.8624 25.3163 15.2093 25.1818 15.5328C25.0473 15.8563 24.8501 16.15 24.6017 16.397L23.7558 17.2429C23.2609 17.7406 22.9829 18.4139 22.9825 19.1158V20.3241C22.9825 21.0291 22.7024 21.7053 22.2039 22.2038C21.7054 22.7024 21.0292 22.9824 20.3242 22.9824H19.1158C18.4139 22.9828 17.7406 23.2608 17.2429 23.7558L16.3971 24.6016C16.15 24.85 15.8563 25.0472 15.5328 25.1817C15.2093 25.3163 14.8624 25.3855 14.5121 25.3855C14.1617 25.3855 13.8148 25.3163 13.4913 25.1817C13.1678 25.0472 12.8741 24.85 12.6271 24.6016L11.7813 23.7558C11.2835 23.2608 10.6103 22.9828 9.90834 22.9824H8.70001C7.99497 22.9824 7.31882 22.7024 6.82028 22.2038C6.32175 21.7053 6.04167 21.0291 6.04167 20.3241V19.1158C6.04127 18.4139 5.76328 17.7406 5.26834 17.2429L4.42251 16.397C4.17407 16.15 3.97693 15.8563 3.8424 15.5328C3.70787 15.2093 3.63861 14.8624 3.63861 14.512C3.63861 14.1617 3.70787 13.8148 3.8424 13.4913C3.97693 13.1678 4.17407 12.8741 4.42251 12.627L5.26834 11.7812C5.76328 11.2835 6.04127 10.6102 6.04167 9.90828V8.69995Z" stroke="#D93F21" stroke-width="2.3" stroke-linecap="round" stroke-linejoin="round"/>
<path d="M18 11L11 18M11 11L18 18" stroke="#D93F21" stroke-width="2.3" stroke-linecap="round" stroke-linejoin="round"/>
</svg>
